<svg class="logo-footer" xmlns="http://www.w3.org/2000/svg" viewBox="0 0 127.8 23.4">
  <path fill="#111"
    d="M1.6 21.5c-1-1.3-1.6-3.2-1.6-5.6V7.6c0-2.5.5-4.4 1.5-5.7C2.6.6 4.3 0 6.8 0c2.4 0 4.1.6 5.1 1.7 1 1.1 1.5 2.8 1.5 4.9v2H8.5V6.3c0-.9-.1-1.6-.3-2S7.6 3.5 6.8 3.5c-.7 0-1.2.2-1.4.7S5.1 5.5 5.1 6.4v10.7c0 .9.1 1.6.4 2.1.2.5.7.7 1.4.7.7 0 1.1-.2 1.3-.7.2-.5.3-1.2.3-2.1v-2.4h4.9v2c0 2.1-.5 3.8-1.5 5-1 1.2-2.7 1.8-5.1 1.8C4.4 23.4 2.6 22.8 1.6 21.5zM19.3.3h5.7l4.2 22.8h-4.6l-.8-4.8h-3.3l-.8 4.8H15L19.3.3zM23.4 15.3l-1.2-8.9L21 15.3H23.4zM32.7 4.1h-3.4V.3h11.9v3.7h-3.4v19.1h-5.1V4.1zM50.3.3h8.8v2.4h-5.7v7.5h4.6v2.3h-4.6v8.4h5.7v2.3h-8.9V.3zM61.7.3h2.2l6.5 15.1V.3h2.6v22.8h-2L64.4 7.5v15.6h-2.7V.3zM76 .3h8.8v2.4h-5.7v7.5h4.6v2.3h-4.6v8.4h5.7v2.3H76V.3zM87.4.3H92c2.3 0 4 .5 5.1 1.4 1.1.9 1.6 2.5 1.6 4.6 0 2.9-.9 4.7-2.8 5.3l3.2 11.4H96l-3-10.7h-2.5v10.7h-3.2V.3zM91.8 10.1c1.4 0 2.3-.3 2.9-.8.6-.5.9-1.5.9-3 0-.9-.1-1.7-.3-2.2-.2-.5-.6-.9-1.1-1.2-.5-.3-1.3-.4-2.2-.4h-1.4v7.5H91.8zM102.7 21.4c-.9-1.3-1.4-3.2-1.4-5.8V8c0-1.8.2-3.2.5-4.3.4-1.1 1-2 1.9-2.6s2.1-.9 3.7-.9c2.1 0 3.6.5 4.5 1.6s1.4 2.7 1.4 5v.8h-3V6.9c0-1.1-.1-1.9-.2-2.5-.1-.6-.4-1-.8-1.3-.4-.3-1-.5-1.9-.5-.9 0-1.5.2-2 .6s-.7.9-.8 1.6-.2 1.6-.2 2.7V16c0 1.7.2 3 .6 3.8.4.8 1.2 1.1 2.4 1.1 1.2 0 2-.4 2.4-1.2.4-.8.7-2.1.7-4v-1.6h-2.9v-2.3h5.8v11.3h-2l-.3-2.6c-.7 1.9-2.1 2.9-4.1 2.9C105.1 23.4 103.6 22.7 102.7 21.4zM119.8 15.1l-4.9-14.7h3l3.5 11 3.4-11h3l-4.9 14.7v8h-3V15.1z" />
</svg>
