<svg version="1.1" width="190"  xmlns="http://www.w3.org/2000/svg" x="0" y="0" viewBox="0 0 190.4 37.6"
  xml:space="preserve">
  <style>
    .st0 {
      fill: #fdc305
    }

    .st1 {
      fill: #f06351
    }

    .st2 {
      fill: #111
    }
  </style>
  <path class="st0"
    d="M6.1 20.7l.1-2.3c6.7-.9 13.4-1.4 20.2-1.3 0 .6 0 1.2-.1 1.8 0 0 2.9-1.3 6-1.8-2.4-6.3-8.5-10.8-15.6-10.8-8.3 0-15.2 6.1-16.5 14.1C2.4 20.5 6.1 20.7 6.1 20.7zM27.2 24.2c-1.2 1.3-1.4 1.2-1.4 3.5 0 .9 0 4.9 0 9.2 4.5-3 7.4-8.1 7.4-13.9 0-1.1-.1-2.1-.3-3.1C31.2 21 28.2 23.1 27.2 24.2zM6.4 25.7c0 0-3.8-1.4-5.2-1.8-.4-.1-.8-.2-1.2-.3.2 6 3.7 11.3 8.7 14L6.4 25.7z" />
  <path class="st1"
    d="M26.3,17.1c0.1-8.5-1.4-16.5-1.4-16.5S24.7-0.6,24,0.4c-0.7,1.1-1.2,3.9-1.2,3.9C15.4,3.9,10,4.6,10,4.6 C9.2,2,7.9,0.8,7.2,1C6.5,1.3,6.5,4.4,6.5,4.4L6.1,18.5C12.8,17.5,19.6,17.1,26.3,17.1z" />
  <path
    d="M12.4 14c0-.1 1 .7 1.4.9s.6.4.6.6c0 .2-.3.3-.6.3s-.9-.1-1-.3c0 0 .6 0 .9 0H14C14.1 15.6 12.7 14.5 12.4 14zM19.9 14.1c0 0-1 1.3-1.1 1.3 0 .1-.2.3.2.3s1.1-.2 1.2-.3.1-.2-.1-.2-.7 0-1 .1L19.9 14.1C19.9 14.1 20 14 19.9 14.1zM16.8 20.2c0 0 .8-.4 1.1-1 .3-.7 0-.9-.4-1-.5-.1-1.3 0-1.7.3-.4.4-.3.7-.1 1C15.9 19.7 16.5 20.1 16.8 20.2z" />
  <path class="st1"
    d="M16.3,21.5c0,0-0.2,0.4-0.5,0.6c-0.2,0.2-0.6,0.4-1,0.4c-0.6,0-1.1-0.2-1.5-0.4c-0.2-0.1-0.4-0.3-0.5-0.4 c-0.2-0.2-0.4-0.3-0.4-0.3s0.7,4.1,2.6,4.7c1.8,0.6,2.1-0.7,2.2-1.1c0-0.3,0-2.1-0.8-3.2C16.5,21.4,16.4,21.6,16.3,21.5z" />
  <path
    d="M14.7,22.6L14.7,22.6c-1.3,0-2.3-1.4-2.3-1.4c0-0.1,0-0.2,0-0.2c0.1,0,0.2,0,0.2,0s1,1.3,2.1,1.3l0,0c0.6,0,1.1-0.3,1.6-1 l0.1-0.2l0.1,0.2c0,0,0.4,0.8,1,0.8c0.5,0,1.1-0.4,1.6-1.3c0-0.1,0.1-0.1,0.2,0c0.1,0,0.1,0.1,0,0.2c-0.6,1-1.3,1.4-1.9,1.4 s-0.9-0.5-1.1-0.8C15.9,22.3,15.3,22.6,14.7,22.6z" />
  <path class="st1"
    d="M26.2,18.9c0,0-2.5,2.2-5.1,5.2S15.9,29,15.9,29c-0.2-0.5-1.6-1.5-1.6-1.5s-3.1-2.1-5.2-3.8 c-1.2-1-2.3-2.2-3.1-3c-0.3,0-1.1-0.1-2-0.1c4.7,7,12,8.8,12,8.8c0.9-0.1,3.3-1.9,5.1-3.3c1.8-1.4,4.8-4.5,5.9-5.9 c0.6-0.7,0.9-1.4,1.1-2C27,18.6,26.2,18.9,26.2,18.9z" />
  <g>
    <path class="st2"
      d="M1.2 19.6c-.8-1-1.2-2.5-1.2-4.4V8.9C0 7 .4 5.5 1.2 4.5S3.4 3 5.4 3c1.9 0 3.2.4 4 1.3.8.9 1.2 2.1 1.2 3.8v1.5h-4V7.8c0-.7-.1-1.2-.2-1.6-.1-.3-.5-.5-1-.5s-1 .2-1.1.6C4.1 6.7 4 7.2 4 7.9v8.3c0 .7.1 1.2.3 1.6.2.4.5.6 1.1.6.5 0 .9-.2 1-.6.2-.4.2-.9.2-1.6v-1.8h3.9v1.5c0 1.6-.4 2.9-1.2 3.9-.8.9-2.1 1.4-4 1.4C3.4 21.1 2 20.6 1.2 19.6zM15.2 3.2h4.5L23 20.8h-3.6l-.6-3.7h-2.6l-.6 3.7h-3.7L15.2 3.2zM18.4 14.8l-.9-6.9-.9 6.9H18.4zM25.8 6.1h-2.7V3.2h9.3v2.9h-2.7v14.7h-4V6.1H25.8zM39.5 3.2h6.9V5H42v5.8h3.6v1.7H42v6.4h4.5v1.8h-7V3.2zM48.5 3.2h1.7l5.1 11.7V3.2h2.1v17.6h-1.6l-5.1-12v12h-2.1V3.2H48.5zM59.8 3.2h6.9V5h-4.4v5.8h3.6v1.7h-3.6v6.4h4.5v1.8h-7C59.8 20.7 59.8 3.2 59.8 3.2zM68.8 3.2h3.6c1.8 0 3.1.4 4 1.1s1.3 1.9 1.3 3.6c0 2.3-.7 3.6-2.2 4.1l2.5 8.8h-2.4l-2.3-8.3h-1.9v8.3h-2.5L68.8 3.2 68.8 3.2zM72.2 10.8c1.1 0 1.8-.2 2.3-.6C75 9.8 75.2 9 75.2 7.9c0-.7-.1-1.3-.2-1.7s-.4-.7-.9-.9c-.4-.2-1-.3-1.7-.3h-1.1v5.8C71.3 10.8 72.2 10.8 72.2 10.8zM80.8 19.5c-.7-1-1.1-2.5-1.1-4.5V9.2c0-1.4.1-2.5.4-3.4s.8-1.5 1.5-2 1.7-.7 2.9-.7c1.6 0 2.8.4 3.6 1.2.7.8 1.1 2.1 1.1 3.9v.7h-2.3V8.3c0-.8-.1-1.5-.2-1.9-.1-.5-.3-.8-.7-1C85.7 5.1 85.2 5 84.6 5c-.7 0-1.2.2-1.5.5s-.6.7-.7 1.2-.1 1.2-.1 2.1v6.5c0 1.3.2 2.3.5 2.9s1 .9 1.9.9 1.6-.3 1.9-1c.3-.6.5-1.7.5-3.1v-1.2h-2.3v-1.7h4.5v8.7h-1.6l-.2-2c-.6 1.5-1.6 2.2-3.2 2.2C82.7 21 81.5 20.5 80.8 19.5zM94.3 14.6L90.4 3.2h2.3l2.7 8.5 2.7-8.5h2.3l-3.8 11.4v6.2h-2.4v-6.2H94.3z"
      transform="translate(90 10)" />
  </g>
</svg>
